Coordinates
version=1
nRows=32
nColumns=12
inDegrees=yes

Units are S.I. units (second, meters, Newtons, ...)
Angles are in degrees

endheader
time	SC_y	SC_z	SC_x	AC_y	AC_z	AC_x	GH_y	GH_z	GH_yy	EL_x	PS_y
       0.0               -50.6          36.58          18.55           56.5         -1.169         -3.495          43.34          41.56         -102.0          93.86          18.83
   0.01374              -50.59          36.58          18.56           56.5         -1.168         -3.491          43.35          41.55         -102.0          93.85          18.84
   0.02748              -50.59          36.57          18.56           56.5         -1.167         -3.488          43.37          41.55         -102.0          93.84          18.85
   0.04122              -50.59          36.57          18.57           56.5         -1.165         -3.485          43.39          41.54         -102.0          93.82          18.85
   0.05496              -50.58          36.57          18.58           56.5         -1.163         -3.481          43.41          41.54         -102.0          93.81          18.86
    0.0687              -50.58          36.56          18.58           56.5         -1.162         -3.477          43.43          41.54         -102.0          93.79          18.87
   0.08244              -50.57          36.56          18.59          56.51          -1.16         -3.473          43.45          41.53         -102.0          93.77          18.88
   0.09618              -50.57          36.55           18.6          56.51         -1.158         -3.468          43.47          41.53         -102.0          93.76          18.89
    0.1099              -50.56          36.55          18.61          56.51         -1.156         -3.464          43.49          41.52         -102.0          93.74           18.9
    0.1237              -50.56          36.54          18.62          56.51         -1.153         -3.458          43.52          41.52         -101.9          93.72          18.91
    0.1374              -50.55          36.54          18.63          56.51         -1.151         -3.453          43.55          41.51         -101.9          93.69          18.92
    0.1511              -50.55          36.53          18.64          56.52         -1.148         -3.447          43.58           41.5         -101.9          93.67          18.94
    0.1649              -50.54          36.52          18.65          56.52         -1.145         -3.441          43.61           41.5         -101.9          93.64          18.95
    0.1786              -50.53          36.52          18.66          56.52         -1.142         -3.434          43.65          41.49         -101.9          93.61          18.97
    0.1924              -50.52          36.51          18.68          56.53         -1.139         -3.426          43.69          41.48         -101.8          93.58          18.98
    0.2061              -50.52           36.5          18.69          56.53         -1.135         -3.418          43.73          41.47         -101.8          93.55           19.0
    0.2198              -50.51          36.49          18.71          56.53         -1.132         -3.409          43.77          41.46         -101.8          93.51          19.02
    0.2336               -50.5          36.48          18.73          56.54         -1.127         -3.399          43.82          41.45         -101.8          93.47          19.04
    0.2473              -50.49          36.47          18.74          56.54         -1.123         -3.389          43.88          41.44         -101.7          93.43          19.07
    0.2611              -50.47          36.46          18.77          56.55         -1.117         -3.377          43.94          41.43         -101.7          93.38          19.09
    0.2748              -50.46          36.44          18.79          56.55         -1.112         -3.365           44.0          41.42         -101.7          93.33          19.12
    0.2885              -50.45          36.43          18.81          56.56         -1.106         -3.351          44.07           41.4         -101.6          93.27          19.15
    0.3023              -50.43          36.41          18.84          56.57         -1.099         -3.335          44.15          41.39         -101.6          93.21          19.18
     0.316              -50.41          36.39          18.87          56.57         -1.091         -3.318          44.24          41.37         -101.6          93.14          19.22
    0.3298              -50.39          36.37          18.91          56.58         -1.083         -3.299          44.33          41.35         -101.5          93.06          19.26
    0.3435              -50.37          36.35          18.95          56.59         -1.073         -3.278          44.44          41.33         -101.4          92.98          19.31
    0.3572              -50.34          36.33          18.99           56.6         -1.063         -3.254          44.56           41.3         -101.4          92.88          19.36
     0.371              -50.32           36.3          19.04          56.61         -1.051         -3.228           44.7          41.27         -101.3          92.77          19.42
    0.3847              -50.28          36.27          19.09          56.63         -1.038         -3.198          44.85          41.24         -101.2          92.65          19.49
    0.3985              -50.25          36.23          19.16          56.64         -1.023         -3.163          45.03           41.2         -101.1          92.51          19.56
    0.4122              -50.21          36.19          19.23          56.66         -1.005         -3.124          45.23          41.16         -101.0          92.35          19.65
    0.4259              -50.16          36.14          19.31          56.68        -0.9854         -3.079          45.46          41.12         -100.9          92.17          19.75
